M48
;DRILL file {Pcbnew (2013-07-07 BZR 4022)-stable} date 4/2/2015 5:25:05 PM
;FORMAT={-:-/ absolute / inch / decimal}
FMAT,2
INCH,TZ
T1C0.032
T2C0.039
T3C0.040
T4C0.051
T5C0.060
T6C0.120
%
G90
G05
M72
T1
X4.02Y-3.215
X4.02Y-3.415
X4.02Y-4.295
X4.02Y-4.495
X4.02Y-5.815
X4.02Y-6.015
X4.02Y-6.895
X4.02Y-7.095
X4.32Y-3.215
X4.32Y-3.415
X4.32Y-4.295
X4.32Y-4.495
X4.32Y-5.815
X4.32Y-6.015
X4.32Y-6.895
X4.32Y-7.095
X5.4Y-4.995
X5.4Y-7.595
X5.5Y-4.895
X5.5Y-7.495
X5.6Y-4.995
X5.6Y-7.595
X5.835Y-2.965
X5.835Y-5.565
X5.85Y-4.895
X5.85Y-7.495
X5.935Y-2.965
X5.935Y-5.565
X5.94Y-3.745
X5.94Y-4.045
X5.94Y-6.345
X5.94Y-6.645
X6.035Y-2.965
X6.035Y-5.565
X6.04Y-3.745
X6.04Y-4.045
X6.04Y-6.345
X6.04Y-6.645
X6.135Y-2.965
X6.135Y-5.565
X6.14Y-3.745
X6.14Y-4.045
X6.14Y-6.345
X6.14Y-6.645
X6.15Y-4.895
X6.15Y-7.495
X6.24Y-3.745
X6.24Y-4.045
X6.24Y-6.345
X6.24Y-6.645
X6.34Y-3.745
X6.34Y-4.045
X6.34Y-6.345
X6.34Y-6.645
X6.44Y-3.745
X6.44Y-4.045
X6.44Y-6.345
X6.44Y-6.645
X6.45Y-3.235
X6.45Y-4.745
X6.45Y-5.835
X6.45Y-7.345
X6.48Y-4.855
X6.48Y-5.055
X6.48Y-7.455
X6.48Y-7.655
X6.54Y-3.435
X6.54Y-3.555
X6.54Y-3.745
X6.54Y-4.045
X6.54Y-6.035
X6.54Y-6.155
X6.54Y-6.345
X6.54Y-6.645
X6.6Y-4.375
X6.6Y-4.475
X6.6Y-6.975
X6.6Y-7.075
X6.64Y-3.435
X6.64Y-3.555
X6.64Y-3.745
X6.64Y-4.045
X6.64Y-6.035
X6.64Y-6.155
X6.64Y-6.345
X6.64Y-6.645
X6.74Y-3.745
X6.74Y-4.045
X6.74Y-6.345
X6.74Y-6.645
X6.78Y-4.265
X6.78Y-4.565
X6.78Y-4.855
X6.78Y-5.055
X6.78Y-6.865
X6.78Y-7.165
X6.78Y-7.455
X6.78Y-7.655
X6.84Y-3.745
X6.84Y-4.045
X6.84Y-6.345
X6.84Y-6.645
X6.85Y-3.235
X6.85Y-4.745
X6.85Y-5.835
X6.85Y-7.345
X6.88Y-4.265
X6.88Y-4.565
X6.88Y-6.865
X6.88Y-7.165
X6.94Y-3.745
X6.94Y-4.045
X6.94Y-6.345
X6.94Y-6.645
X6.98Y-4.265
X6.98Y-4.565
X6.98Y-6.865
X6.98Y-7.165
X7.04Y-3.745
X7.04Y-4.045
X7.04Y-6.345
X7.04Y-6.645
X7.08Y-4.265
X7.08Y-4.565
X7.08Y-6.865
X7.08Y-7.165
X7.135Y-5.02
X7.135Y-7.62
X7.14Y-3.745
X7.14Y-4.045
X7.14Y-6.345
X7.14Y-6.645
X7.235Y-5.02
X7.235Y-7.62
X7.24Y-3.745
X7.24Y-4.045
X7.24Y-6.345
X7.24Y-6.645
X7.335Y-5.02
X7.335Y-7.62
X7.435Y-5.02
X7.435Y-7.62
X7.45Y-3.655
X7.45Y-4.055
X7.45Y-6.255
X7.45Y-6.655
X7.59Y-3.655
X7.59Y-4.055
X7.59Y-6.255
X7.59Y-6.655
X7.66Y-3.215
X7.66Y-3.415
X7.66Y-4.295
X7.66Y-4.495
X7.66Y-5.815
X7.66Y-6.015
X7.66Y-6.895
X7.66Y-7.095
X7.96Y-3.215
X7.96Y-3.415
X7.96Y-4.295
X7.96Y-4.495
X7.96Y-5.815
X7.96Y-6.015
X7.96Y-6.895
X7.96Y-7.095
X8.22Y-3.215
X8.22Y-3.415
X8.22Y-4.295
X8.22Y-4.495
X8.22Y-5.815
X8.22Y-6.015
X8.22Y-6.895
X8.22Y-7.095
X8.52Y-3.215
X8.52Y-3.415
X8.52Y-4.295
X8.52Y-4.495
X8.52Y-5.815
X8.52Y-6.015
X8.52Y-6.895
X8.52Y-7.095
X9.6Y-4.995
X9.6Y-7.595
X9.7Y-4.895
X9.7Y-7.495
X9.8Y-4.995
X9.8Y-7.595
X10.035Y-2.965
X10.035Y-5.565
X10.05Y-4.895
X10.05Y-7.495
X10.135Y-2.965
X10.135Y-5.565
X10.14Y-3.745
X10.14Y-4.045
X10.14Y-6.345
X10.14Y-6.645
X10.235Y-2.965
X10.235Y-5.565
X10.24Y-3.745
X10.24Y-4.045
X10.24Y-6.345
X10.24Y-6.645
X10.335Y-2.965
X10.335Y-5.565
X10.34Y-3.745
X10.34Y-4.045
X10.34Y-6.345
X10.34Y-6.645
X10.35Y-4.895
X10.35Y-7.495
X10.44Y-3.745
X10.44Y-4.045
X10.44Y-6.345
X10.44Y-6.645
X10.54Y-3.745
X10.54Y-4.045
X10.54Y-6.345
X10.54Y-6.645
X10.64Y-3.745
X10.64Y-4.045
X10.64Y-6.345
X10.64Y-6.645
X10.65Y-3.235
X10.65Y-4.745
X10.65Y-5.835
X10.65Y-7.345
X10.68Y-4.855
X10.68Y-5.055
X10.68Y-7.455
X10.68Y-7.655
X10.74Y-3.435
X10.74Y-3.555
X10.74Y-3.745
X10.74Y-4.045
X10.74Y-6.035
X10.74Y-6.155
X10.74Y-6.345
X10.74Y-6.645
X10.8Y-4.375
X10.8Y-4.475
X10.8Y-6.975
X10.8Y-7.075
X10.84Y-3.435
X10.84Y-3.555
X10.84Y-3.745
X10.84Y-4.045
X10.84Y-6.035
X10.84Y-6.155
X10.84Y-6.345
X10.84Y-6.645
X10.94Y-3.745
X10.94Y-4.045
X10.94Y-6.345
X10.94Y-6.645
X10.98Y-4.265
X10.98Y-4.565
X10.98Y-4.855
X10.98Y-5.055
X10.98Y-6.865
X10.98Y-7.165
X10.98Y-7.455
X10.98Y-7.655
X11.04Y-3.745
X11.04Y-4.045
X11.04Y-6.345
X11.04Y-6.645
X11.05Y-3.235
X11.05Y-4.745
X11.05Y-5.835
X11.05Y-7.345
X11.08Y-4.265
X11.08Y-4.565
X11.08Y-6.865
X11.08Y-7.165
X11.14Y-3.745
X11.14Y-4.045
X11.14Y-6.345
X11.14Y-6.645
X11.18Y-4.265
X11.18Y-4.565
X11.18Y-6.865
X11.18Y-7.165
X11.24Y-3.745
X11.24Y-4.045
X11.24Y-6.345
X11.24Y-6.645
X11.28Y-4.265
X11.28Y-4.565
X11.28Y-6.865
X11.28Y-7.165
X11.335Y-5.02
X11.335Y-7.62
X11.34Y-3.745
X11.34Y-4.045
X11.34Y-6.345
X11.34Y-6.645
X11.435Y-5.02
X11.435Y-7.62
X11.44Y-3.745
X11.44Y-4.045
X11.44Y-6.345
X11.44Y-6.645
X11.535Y-5.02
X11.535Y-7.62
X11.635Y-5.02
X11.635Y-7.62
X11.65Y-3.655
X11.65Y-4.055
X11.65Y-6.255
X11.65Y-6.655
X11.79Y-3.655
X11.79Y-4.055
X11.79Y-6.255
X11.79Y-6.655
X11.86Y-3.215
X11.86Y-3.415
X11.86Y-4.295
X11.86Y-4.495
X11.86Y-5.815
X11.86Y-6.015
X11.86Y-6.895
X11.86Y-7.095
X12.16Y-3.215
X12.16Y-3.415
X12.16Y-4.295
X12.16Y-4.495
X12.16Y-5.815
X12.16Y-6.015
X12.16Y-6.895
X12.16Y-7.095
T2
X4.61Y-4.925
X4.61Y-5.025
X4.61Y-7.525
X4.61Y-7.625
X4.71Y-4.925
X4.71Y-5.025
X4.71Y-7.525
X4.71Y-7.625
X4.73Y-3.235
X4.73Y-5.835
X4.81Y-4.925
X4.81Y-5.025
X4.81Y-7.525
X4.81Y-7.625
X4.83Y-3.235
X4.83Y-5.835
X4.91Y-4.925
X4.91Y-5.025
X4.91Y-7.525
X4.91Y-7.625
X4.93Y-3.235
X4.93Y-5.835
X5.01Y-4.925
X5.01Y-5.025
X5.01Y-7.525
X5.01Y-7.625
X5.03Y-3.235
X5.03Y-5.835
X5.13Y-3.235
X5.13Y-5.835
X5.23Y-3.235
X5.23Y-5.835
X5.33Y-3.235
X5.33Y-5.835
X5.43Y-3.235
X5.43Y-5.835
X5.53Y-3.235
X5.53Y-5.835
X5.63Y-3.235
X5.63Y-5.835
X5.73Y-3.235
X5.73Y-5.835
X5.83Y-3.235
X5.83Y-5.835
X5.93Y-3.235
X5.93Y-5.835
X6.03Y-3.235
X6.03Y-5.835
X6.13Y-3.235
X6.13Y-5.835
X6.23Y-3.235
X6.23Y-5.835
X8.81Y-4.925
X8.81Y-5.025
X8.81Y-7.525
X8.81Y-7.625
X8.91Y-4.925
X8.91Y-5.025
X8.91Y-7.525
X8.91Y-7.625
X8.93Y-3.235
X8.93Y-5.835
X9.01Y-4.925
X9.01Y-5.025
X9.01Y-7.525
X9.01Y-7.625
X9.03Y-3.235
X9.03Y-5.835
X9.11Y-4.925
X9.11Y-5.025
X9.11Y-7.525
X9.11Y-7.625
X9.13Y-3.235
X9.13Y-5.835
X9.21Y-4.925
X9.21Y-5.025
X9.21Y-7.525
X9.21Y-7.625
X9.23Y-3.235
X9.23Y-5.835
X9.33Y-3.235
X9.33Y-5.835
X9.43Y-3.235
X9.43Y-5.835
X9.53Y-3.235
X9.53Y-5.835
X9.63Y-3.235
X9.63Y-5.835
X9.73Y-3.235
X9.73Y-5.835
X9.83Y-3.235
X9.83Y-5.835
X9.93Y-3.235
X9.93Y-5.835
X10.03Y-3.235
X10.03Y-5.835
X10.13Y-3.235
X10.13Y-5.835
X10.23Y-3.235
X10.23Y-5.835
X10.33Y-3.235
X10.33Y-5.835
X10.43Y-3.235
X10.43Y-5.835
T3
X4.67Y-3.695
X4.67Y-6.295
X5.03Y-3.765
X5.03Y-6.365
X5.08Y-4.315
X5.08Y-6.915
X5.14Y-3.535
X5.14Y-6.135
X5.22Y-4.405
X5.22Y-7.005
X5.72Y-4.635
X5.72Y-7.235
X6.Y-4.625
X6.Y-7.225
X6.98Y-3.19
X6.98Y-5.79
X7.Y-2.995
X7.Y-5.595
X7.04Y-3.55
X7.04Y-6.15
X7.1Y-3.19
X7.1Y-5.79
X7.71Y-3.665
X7.71Y-6.265
X8.87Y-3.695
X8.87Y-6.295
X9.23Y-3.765
X9.23Y-6.365
X9.28Y-4.315
X9.28Y-6.915
X9.34Y-3.535
X9.34Y-6.135
X9.42Y-4.405
X9.42Y-7.005
X9.92Y-4.635
X9.92Y-7.235
X10.2Y-4.625
X10.2Y-7.225
X11.18Y-3.19
X11.18Y-5.79
X11.2Y-2.995
X11.2Y-5.595
X11.24Y-3.55
X11.24Y-6.15
X11.3Y-3.19
X11.3Y-5.79
X11.91Y-3.665
X11.91Y-6.265
T4
X4.67Y-3.895
X4.67Y-6.495
X5.4574Y-3.895
X5.4574Y-6.495
X8.87Y-3.895
X8.87Y-6.495
X9.6574Y-3.895
X9.6574Y-6.495
T5
X4.17Y-3.795
X4.17Y-3.995
X4.17Y-6.395
X4.17Y-6.595
X8.37Y-3.795
X8.37Y-3.995
X8.37Y-6.395
X8.37Y-6.595
T6
X4.1142Y-3.0165
X4.1142Y-5.1819
X4.1142Y-5.6165
X4.1142Y-7.7819
X4.51Y-3.235
X4.51Y-4.455
X4.51Y-5.835
X4.51Y-7.055
X7.47Y-3.235
X7.47Y-4.455
X7.47Y-5.835
X7.47Y-7.055
X7.8937Y-3.0165
X7.8937Y-5.1819
X7.8937Y-5.6165
X7.8937Y-7.7819
X8.3142Y-3.0165
X8.3142Y-5.1819
X8.3142Y-5.6165
X8.3142Y-7.7819
X8.71Y-3.235
X8.71Y-4.455
X8.71Y-5.835
X8.71Y-7.055
X11.67Y-3.235
X11.67Y-4.455
X11.67Y-5.835
X11.67Y-7.055
X12.0937Y-3.0165
X12.0937Y-5.1819
X12.0937Y-5.6165
X12.0937Y-7.7819
T0
M30
