M48
;DRILL file {kicad (2015-01-16 BZR 5376)-product} date 26/05/2015 2:01:01 PM
;FORMAT={-:-/ absolute / metric / decimal}
FMAT,2
METRIC,TZ
T1C0.813
T2C0.998
T3C1.001
T4C1.016
T5C1.143
T6C1.298
T7C1.524
T8C3.048
%
G90
G05
M71
T1
X27.432Y-33.655
X27.432Y-38.735
X27.432Y-61.087
X27.432Y-66.167
X34.29Y-84.836
X35.052Y-33.655
X35.052Y-38.735
X35.052Y-61.087
X35.052Y-66.167
X44.45Y-84.836
X47.244Y-84.582
X49.784Y-84.582
X52.832Y-81.28
X54.102Y-73.152
X55.372Y-78.74
X56.642Y-73.152
X57.912Y-81.28
X73.533Y-27.305
X76.073Y-27.305
X76.2Y-47.117
X76.2Y-54.737
X78.613Y-27.305
X78.74Y-47.117
X78.74Y-54.737
X81.153Y-27.305
X81.28Y-47.117
X81.28Y-54.737
X83.82Y-47.117
X83.82Y-54.737
X86.36Y-47.117
X86.36Y-54.737
X86.36Y-78.74
X88.9Y-34.036
X88.9Y-47.117
X88.9Y-54.737
X91.44Y-39.243
X91.44Y-42.291
X91.44Y-47.117
X91.44Y-54.737
X92.964Y-63.119
X92.964Y-65.659
X93.98Y-39.243
X93.98Y-42.291
X93.98Y-47.117
X93.98Y-54.737
X93.98Y-78.74
X96.52Y-47.117
X96.52Y-54.737
X97.536Y-60.325
X97.536Y-67.945
X98.044Y-73.406
X99.06Y-34.036
X99.06Y-47.117
X99.06Y-54.737
X99.568Y-76.962
X99.568Y-82.042
X100.076Y-60.325
X100.076Y-67.945
X101.6Y-47.117
X101.6Y-54.737
X102.616Y-60.325
X102.616Y-67.945
X104.14Y-47.117
X104.14Y-54.737
X105.156Y-60.325
X105.156Y-67.945
X106.68Y-47.117
X106.68Y-54.737
X107.188Y-76.962
X107.188Y-82.042
X108.204Y-73.406
X109.22Y-47.117
X109.22Y-54.737
X111.252Y-82.042
X113.792Y-82.042
X114.554Y-44.831
X114.554Y-54.991
X116.332Y-82.042
X118.11Y-44.831
X118.11Y-54.991
X118.872Y-82.042
X119.888Y-33.655
X119.888Y-38.735
X119.888Y-61.087
X119.888Y-66.167
X127.508Y-33.655
X127.508Y-38.735
X127.508Y-61.087
X127.508Y-66.167
T2
X45.466Y-34.163
X48.006Y-34.163
X50.546Y-34.163
X53.086Y-34.163
X55.626Y-34.163
X58.166Y-34.163
X60.706Y-34.163
X63.246Y-34.163
X65.786Y-34.163
X66.548Y-77.978
X66.548Y-80.518
X68.326Y-34.163
X69.088Y-77.978
X69.088Y-80.518
X70.866Y-34.163
X71.628Y-77.978
X71.628Y-80.518
X73.406Y-34.163
X74.168Y-77.978
X74.168Y-80.518
X75.946Y-34.163
X76.708Y-77.978
X76.708Y-80.518
X78.486Y-34.163
X81.026Y-34.163
X83.566Y-34.163
T4
X55.88Y-41.783
X69.342Y-58.928
X81.026Y-65.786
X88.9Y-73.66
X102.616Y-33.02
X103.124Y-28.067
X104.14Y-42.164
X105.664Y-33.02
X121.158Y-45.085
T5
X45.466Y-73.66
X45.466Y-76.2
X45.466Y-78.74
T6
X43.942Y-50.927
X63.942Y-50.927
T7
X31.242Y-48.387
X31.242Y-53.467
T8
X29.824Y-28.614
X29.824Y-83.614
X39.878Y-34.163
X39.878Y-65.151
X115.062Y-34.163
X115.062Y-65.151
X125.824Y-28.614
X125.824Y-83.614
T3
X33.475Y-74.439G85X33.475Y-76.437
G05
X35.475Y-80.137G85X37.474Y-80.137
G05
X39.474Y-74.439G85X39.474Y-76.437
G05
T0
M30
