G04 (created by PCBNEW (2013-07-07 BZR 4022)-stable) date 5/4/2015 1:16:15 PM*
%MOIN*%
G04 Gerber Fmt 3.4, Leading zero omitted, Abs format*
%FSLAX34Y34*%
G01*
G70*
G90*
G04 APERTURE LIST*
%ADD10C,0.00590551*%
%ADD11C,0.00393701*%
%ADD12C,0.0669291*%
%ADD13R,0.09X0.062*%
%ADD14O,0.09X0.062*%
%ADD15C,0.0905512*%
%ADD16O,0.152X0.076*%
%ADD17R,0.1X0.1*%
%ADD18C,0.1*%
%ADD19C,0.16*%
%ADD20R,0.0669291X0.0669291*%
%ADD21C,0.06*%
%ADD22C,0.066*%
%ADD23R,0.055X0.055*%
%ADD24C,0.055*%
%ADD25R,0.1378X0.1378*%
%ADD26C,0.07*%
%ADD27R,0.07X0.07*%
G04 APERTURE END LIST*
G54D10*
G54D11*
X37250Y-71950D02*
X37250Y-71250D01*
X12046Y-32941D02*
X12046Y-35303D01*
X12440Y-32941D02*
X12046Y-32941D01*
X12046Y-74279D02*
X12046Y-71917D01*
X12440Y-74279D02*
X12046Y-74279D01*
X37243Y-32941D02*
X37243Y-34909D01*
X35275Y-32941D02*
X37243Y-32941D01*
X37243Y-32941D02*
X35275Y-32941D01*
X37243Y-74279D02*
X37243Y-72311D01*
X37243Y-74279D02*
X35275Y-74279D01*
X12440Y-74279D02*
X14409Y-74279D01*
X12440Y-32941D02*
X14409Y-32941D01*
X140500Y-71950D02*
X140500Y-71250D01*
X115296Y-32941D02*
X115296Y-35303D01*
X115690Y-32941D02*
X115296Y-32941D01*
X115296Y-74279D02*
X115296Y-71917D01*
X115690Y-74279D02*
X115296Y-74279D01*
X140493Y-32941D02*
X140493Y-34909D01*
X138525Y-32941D02*
X140493Y-32941D01*
X140493Y-32941D02*
X138525Y-32941D01*
X140493Y-74279D02*
X140493Y-72311D01*
X140493Y-74279D02*
X138525Y-74279D01*
X115690Y-74279D02*
X117659Y-74279D01*
X115690Y-32941D02*
X117659Y-32941D01*
X114750Y-71950D02*
X114750Y-71250D01*
X89546Y-32941D02*
X89546Y-35303D01*
X89940Y-32941D02*
X89546Y-32941D01*
X89546Y-74279D02*
X89546Y-71917D01*
X89940Y-74279D02*
X89546Y-74279D01*
X114743Y-32941D02*
X114743Y-34909D01*
X112775Y-32941D02*
X114743Y-32941D01*
X114743Y-32941D02*
X112775Y-32941D01*
X114743Y-74279D02*
X114743Y-72311D01*
X114743Y-74279D02*
X112775Y-74279D01*
X89940Y-74279D02*
X91909Y-74279D01*
X89940Y-32941D02*
X91909Y-32941D01*
X63250Y-71950D02*
X63250Y-71250D01*
X38046Y-32941D02*
X38046Y-35303D01*
X38440Y-32941D02*
X38046Y-32941D01*
X38046Y-74279D02*
X38046Y-71917D01*
X38440Y-74279D02*
X38046Y-74279D01*
X63243Y-32941D02*
X63243Y-34909D01*
X61275Y-32941D02*
X63243Y-32941D01*
X63243Y-32941D02*
X61275Y-32941D01*
X63243Y-74279D02*
X63243Y-72311D01*
X63243Y-74279D02*
X61275Y-74279D01*
X38440Y-74279D02*
X40409Y-74279D01*
X38440Y-32941D02*
X40409Y-32941D01*
X89000Y-71950D02*
X89000Y-71250D01*
X63796Y-32941D02*
X63796Y-35303D01*
X64190Y-32941D02*
X63796Y-32941D01*
X63796Y-74279D02*
X63796Y-71917D01*
X64190Y-74279D02*
X63796Y-74279D01*
X88993Y-32941D02*
X88993Y-34909D01*
X87025Y-32941D02*
X88993Y-32941D01*
X88993Y-32941D02*
X87025Y-32941D01*
X88993Y-74279D02*
X88993Y-72311D01*
X88993Y-74279D02*
X87025Y-74279D01*
X64190Y-74279D02*
X66159Y-74279D01*
X64190Y-32941D02*
X66159Y-32941D01*
G54D12*
X33450Y-54050D03*
X34450Y-54050D03*
X33450Y-55050D03*
X34450Y-55050D03*
X33450Y-56050D03*
X34450Y-56050D03*
X33450Y-57050D03*
X34450Y-57050D03*
X33450Y-58050D03*
X34450Y-58050D03*
X34750Y-63450D03*
X33750Y-62450D03*
X34750Y-61450D03*
X16150Y-49250D03*
X16150Y-45250D03*
X20400Y-39150D03*
X24400Y-39150D03*
X20400Y-37750D03*
X24400Y-37750D03*
X31650Y-45650D03*
X31650Y-41650D03*
G54D13*
X29500Y-45850D03*
G54D14*
X29500Y-44850D03*
X29500Y-43850D03*
X29500Y-42850D03*
X26500Y-42850D03*
X26500Y-43850D03*
X26500Y-44850D03*
X26500Y-45850D03*
X21300Y-42250D03*
X21300Y-43250D03*
X21300Y-44250D03*
X21300Y-45250D03*
X21300Y-46250D03*
X21300Y-47250D03*
X21300Y-48250D03*
X21300Y-49250D03*
X21300Y-50250D03*
X21300Y-51250D03*
X21300Y-52250D03*
X21300Y-53250D03*
X21300Y-54250D03*
G54D13*
X21300Y-41250D03*
G54D14*
X24300Y-54250D03*
X24300Y-53250D03*
X24300Y-52250D03*
X24300Y-51250D03*
X24300Y-50250D03*
X24300Y-49250D03*
X24300Y-48250D03*
X24300Y-47250D03*
X24300Y-46250D03*
X24300Y-45250D03*
X24300Y-44250D03*
X24300Y-43250D03*
X24300Y-42250D03*
X24300Y-41250D03*
G54D12*
X27600Y-47650D03*
X28600Y-47650D03*
X18200Y-47250D03*
X18200Y-48250D03*
X19400Y-47250D03*
X19400Y-48250D03*
G54D15*
X22800Y-59076D03*
X22800Y-66950D03*
G54D16*
X16200Y-66350D03*
X16200Y-65350D03*
X16200Y-64350D03*
X16200Y-63350D03*
X16200Y-62350D03*
X16200Y-61350D03*
X16200Y-60350D03*
X16200Y-59350D03*
X16200Y-58350D03*
X16200Y-57350D03*
X16200Y-56350D03*
X16200Y-55350D03*
X16200Y-54350D03*
X16200Y-53350D03*
X16200Y-52350D03*
X16200Y-51350D03*
G54D12*
X26800Y-70450D03*
X28800Y-70450D03*
X26800Y-73450D03*
X28800Y-73450D03*
X26800Y-34050D03*
X28800Y-34050D03*
X26800Y-37050D03*
X28800Y-37050D03*
X18000Y-73450D03*
X16000Y-73450D03*
X18000Y-70450D03*
X16000Y-70450D03*
X16000Y-34050D03*
X18000Y-34050D03*
X16000Y-37050D03*
X18000Y-37050D03*
X35050Y-45050D03*
X33050Y-45050D03*
X35050Y-42050D03*
X33050Y-42050D03*
G54D17*
X21800Y-71950D03*
G54D18*
X23800Y-71950D03*
G54D19*
X35668Y-72508D03*
X14015Y-72508D03*
X14015Y-34712D03*
X35668Y-34712D03*
X16200Y-38950D03*
X16200Y-68550D03*
X28400Y-68550D03*
X28400Y-38950D03*
G54D20*
X33750Y-50250D03*
G54D12*
X33750Y-47250D03*
G54D20*
X35050Y-40450D03*
G54D14*
X35050Y-39450D03*
X35050Y-38450D03*
X35050Y-37450D03*
G54D20*
X13500Y-52300D03*
G54D14*
X13500Y-53300D03*
X13500Y-54300D03*
X13500Y-55300D03*
G54D21*
X36150Y-66750D03*
X36150Y-70750D03*
G54D22*
X36050Y-65650D03*
X36050Y-64650D03*
G54D23*
X31550Y-62950D03*
G54D24*
X31550Y-61950D03*
G54D25*
X32450Y-68709D03*
X32450Y-71071D03*
X34300Y-69890D03*
G54D26*
X31750Y-66350D03*
G54D27*
X32750Y-66350D03*
G54D26*
X33750Y-66350D03*
G54D12*
X136700Y-54050D03*
X137700Y-54050D03*
X136700Y-55050D03*
X137700Y-55050D03*
X136700Y-56050D03*
X137700Y-56050D03*
X136700Y-57050D03*
X137700Y-57050D03*
X136700Y-58050D03*
X137700Y-58050D03*
X138000Y-63450D03*
X137000Y-62450D03*
X138000Y-61450D03*
X119400Y-49250D03*
X119400Y-45250D03*
X123650Y-39150D03*
X127650Y-39150D03*
X123650Y-37750D03*
X127650Y-37750D03*
X134900Y-45650D03*
X134900Y-41650D03*
G54D13*
X132750Y-45850D03*
G54D14*
X132750Y-44850D03*
X132750Y-43850D03*
X132750Y-42850D03*
X129750Y-42850D03*
X129750Y-43850D03*
X129750Y-44850D03*
X129750Y-45850D03*
X124550Y-42250D03*
X124550Y-43250D03*
X124550Y-44250D03*
X124550Y-45250D03*
X124550Y-46250D03*
X124550Y-47250D03*
X124550Y-48250D03*
X124550Y-49250D03*
X124550Y-50250D03*
X124550Y-51250D03*
X124550Y-52250D03*
X124550Y-53250D03*
X124550Y-54250D03*
G54D13*
X124550Y-41250D03*
G54D14*
X127550Y-54250D03*
X127550Y-53250D03*
X127550Y-52250D03*
X127550Y-51250D03*
X127550Y-50250D03*
X127550Y-49250D03*
X127550Y-48250D03*
X127550Y-47250D03*
X127550Y-46250D03*
X127550Y-45250D03*
X127550Y-44250D03*
X127550Y-43250D03*
X127550Y-42250D03*
X127550Y-41250D03*
G54D12*
X130850Y-47650D03*
X131850Y-47650D03*
X121450Y-47250D03*
X121450Y-48250D03*
X122650Y-47250D03*
X122650Y-48250D03*
G54D15*
X126050Y-59076D03*
X126050Y-66950D03*
G54D16*
X119450Y-66350D03*
X119450Y-65350D03*
X119450Y-64350D03*
X119450Y-63350D03*
X119450Y-62350D03*
X119450Y-61350D03*
X119450Y-60350D03*
X119450Y-59350D03*
X119450Y-58350D03*
X119450Y-57350D03*
X119450Y-56350D03*
X119450Y-55350D03*
X119450Y-54350D03*
X119450Y-53350D03*
X119450Y-52350D03*
X119450Y-51350D03*
G54D12*
X130050Y-70450D03*
X132050Y-70450D03*
X130050Y-73450D03*
X132050Y-73450D03*
X130050Y-34050D03*
X132050Y-34050D03*
X130050Y-37050D03*
X132050Y-37050D03*
X121250Y-73450D03*
X119250Y-73450D03*
X121250Y-70450D03*
X119250Y-70450D03*
X119250Y-34050D03*
X121250Y-34050D03*
X119250Y-37050D03*
X121250Y-37050D03*
X138300Y-45050D03*
X136300Y-45050D03*
X138300Y-42050D03*
X136300Y-42050D03*
G54D17*
X125050Y-71950D03*
G54D18*
X127050Y-71950D03*
G54D19*
X138918Y-72508D03*
X117265Y-72508D03*
X117265Y-34712D03*
X138918Y-34712D03*
X119450Y-38950D03*
X119450Y-68550D03*
X131650Y-68550D03*
X131650Y-38950D03*
G54D20*
X137000Y-50250D03*
G54D12*
X137000Y-47250D03*
G54D20*
X138300Y-40450D03*
G54D14*
X138300Y-39450D03*
X138300Y-38450D03*
X138300Y-37450D03*
G54D20*
X116750Y-52300D03*
G54D14*
X116750Y-53300D03*
X116750Y-54300D03*
X116750Y-55300D03*
G54D21*
X139400Y-66750D03*
X139400Y-70750D03*
G54D22*
X139300Y-65650D03*
X139300Y-64650D03*
G54D23*
X134800Y-62950D03*
G54D24*
X134800Y-61950D03*
G54D25*
X135700Y-68709D03*
X135700Y-71071D03*
X137550Y-69890D03*
G54D26*
X135000Y-66350D03*
G54D27*
X136000Y-66350D03*
G54D26*
X137000Y-66350D03*
G54D12*
X110950Y-54050D03*
X111950Y-54050D03*
X110950Y-55050D03*
X111950Y-55050D03*
X110950Y-56050D03*
X111950Y-56050D03*
X110950Y-57050D03*
X111950Y-57050D03*
X110950Y-58050D03*
X111950Y-58050D03*
X112250Y-63450D03*
X111250Y-62450D03*
X112250Y-61450D03*
X93650Y-49250D03*
X93650Y-45250D03*
X97900Y-39150D03*
X101900Y-39150D03*
X97900Y-37750D03*
X101900Y-37750D03*
X109150Y-45650D03*
X109150Y-41650D03*
G54D13*
X107000Y-45850D03*
G54D14*
X107000Y-44850D03*
X107000Y-43850D03*
X107000Y-42850D03*
X104000Y-42850D03*
X104000Y-43850D03*
X104000Y-44850D03*
X104000Y-45850D03*
X98800Y-42250D03*
X98800Y-43250D03*
X98800Y-44250D03*
X98800Y-45250D03*
X98800Y-46250D03*
X98800Y-47250D03*
X98800Y-48250D03*
X98800Y-49250D03*
X98800Y-50250D03*
X98800Y-51250D03*
X98800Y-52250D03*
X98800Y-53250D03*
X98800Y-54250D03*
G54D13*
X98800Y-41250D03*
G54D14*
X101800Y-54250D03*
X101800Y-53250D03*
X101800Y-52250D03*
X101800Y-51250D03*
X101800Y-50250D03*
X101800Y-49250D03*
X101800Y-48250D03*
X101800Y-47250D03*
X101800Y-46250D03*
X101800Y-45250D03*
X101800Y-44250D03*
X101800Y-43250D03*
X101800Y-42250D03*
X101800Y-41250D03*
G54D12*
X105100Y-47650D03*
X106100Y-47650D03*
X95700Y-47250D03*
X95700Y-48250D03*
X96900Y-47250D03*
X96900Y-48250D03*
G54D15*
X100300Y-59076D03*
X100300Y-66950D03*
G54D16*
X93700Y-66350D03*
X93700Y-65350D03*
X93700Y-64350D03*
X93700Y-63350D03*
X93700Y-62350D03*
X93700Y-61350D03*
X93700Y-60350D03*
X93700Y-59350D03*
X93700Y-58350D03*
X93700Y-57350D03*
X93700Y-56350D03*
X93700Y-55350D03*
X93700Y-54350D03*
X93700Y-53350D03*
X93700Y-52350D03*
X93700Y-51350D03*
G54D12*
X104300Y-70450D03*
X106300Y-70450D03*
X104300Y-73450D03*
X106300Y-73450D03*
X104300Y-34050D03*
X106300Y-34050D03*
X104300Y-37050D03*
X106300Y-37050D03*
X95500Y-73450D03*
X93500Y-73450D03*
X95500Y-70450D03*
X93500Y-70450D03*
X93500Y-34050D03*
X95500Y-34050D03*
X93500Y-37050D03*
X95500Y-37050D03*
X112550Y-45050D03*
X110550Y-45050D03*
X112550Y-42050D03*
X110550Y-42050D03*
G54D17*
X99300Y-71950D03*
G54D18*
X101300Y-71950D03*
G54D19*
X113168Y-72508D03*
X91515Y-72508D03*
X91515Y-34712D03*
X113168Y-34712D03*
X93700Y-38950D03*
X93700Y-68550D03*
X105900Y-68550D03*
X105900Y-38950D03*
G54D20*
X111250Y-50250D03*
G54D12*
X111250Y-47250D03*
G54D20*
X112550Y-40450D03*
G54D14*
X112550Y-39450D03*
X112550Y-38450D03*
X112550Y-37450D03*
G54D20*
X91000Y-52300D03*
G54D14*
X91000Y-53300D03*
X91000Y-54300D03*
X91000Y-55300D03*
G54D21*
X113650Y-66750D03*
X113650Y-70750D03*
G54D22*
X113550Y-65650D03*
X113550Y-64650D03*
G54D23*
X109050Y-62950D03*
G54D24*
X109050Y-61950D03*
G54D25*
X109950Y-68709D03*
X109950Y-71071D03*
X111800Y-69890D03*
G54D26*
X109250Y-66350D03*
G54D27*
X110250Y-66350D03*
G54D26*
X111250Y-66350D03*
G54D12*
X59450Y-54050D03*
X60450Y-54050D03*
X59450Y-55050D03*
X60450Y-55050D03*
X59450Y-56050D03*
X60450Y-56050D03*
X59450Y-57050D03*
X60450Y-57050D03*
X59450Y-58050D03*
X60450Y-58050D03*
X60750Y-63450D03*
X59750Y-62450D03*
X60750Y-61450D03*
X42150Y-49250D03*
X42150Y-45250D03*
X46400Y-39150D03*
X50400Y-39150D03*
X46400Y-37750D03*
X50400Y-37750D03*
X57650Y-45650D03*
X57650Y-41650D03*
G54D13*
X55500Y-45850D03*
G54D14*
X55500Y-44850D03*
X55500Y-43850D03*
X55500Y-42850D03*
X52500Y-42850D03*
X52500Y-43850D03*
X52500Y-44850D03*
X52500Y-45850D03*
X47300Y-42250D03*
X47300Y-43250D03*
X47300Y-44250D03*
X47300Y-45250D03*
X47300Y-46250D03*
X47300Y-47250D03*
X47300Y-48250D03*
X47300Y-49250D03*
X47300Y-50250D03*
X47300Y-51250D03*
X47300Y-52250D03*
X47300Y-53250D03*
X47300Y-54250D03*
G54D13*
X47300Y-41250D03*
G54D14*
X50300Y-54250D03*
X50300Y-53250D03*
X50300Y-52250D03*
X50300Y-51250D03*
X50300Y-50250D03*
X50300Y-49250D03*
X50300Y-48250D03*
X50300Y-47250D03*
X50300Y-46250D03*
X50300Y-45250D03*
X50300Y-44250D03*
X50300Y-43250D03*
X50300Y-42250D03*
X50300Y-41250D03*
G54D12*
X53600Y-47650D03*
X54600Y-47650D03*
X44200Y-47250D03*
X44200Y-48250D03*
X45400Y-47250D03*
X45400Y-48250D03*
G54D15*
X48800Y-59076D03*
X48800Y-66950D03*
G54D16*
X42200Y-66350D03*
X42200Y-65350D03*
X42200Y-64350D03*
X42200Y-63350D03*
X42200Y-62350D03*
X42200Y-61350D03*
X42200Y-60350D03*
X42200Y-59350D03*
X42200Y-58350D03*
X42200Y-57350D03*
X42200Y-56350D03*
X42200Y-55350D03*
X42200Y-54350D03*
X42200Y-53350D03*
X42200Y-52350D03*
X42200Y-51350D03*
G54D12*
X52800Y-70450D03*
X54800Y-70450D03*
X52800Y-73450D03*
X54800Y-73450D03*
X52800Y-34050D03*
X54800Y-34050D03*
X52800Y-37050D03*
X54800Y-37050D03*
X44000Y-73450D03*
X42000Y-73450D03*
X44000Y-70450D03*
X42000Y-70450D03*
X42000Y-34050D03*
X44000Y-34050D03*
X42000Y-37050D03*
X44000Y-37050D03*
X61050Y-45050D03*
X59050Y-45050D03*
X61050Y-42050D03*
X59050Y-42050D03*
G54D17*
X47800Y-71950D03*
G54D18*
X49800Y-71950D03*
G54D19*
X61668Y-72508D03*
X40015Y-72508D03*
X40015Y-34712D03*
X61668Y-34712D03*
X42200Y-38950D03*
X42200Y-68550D03*
X54400Y-68550D03*
X54400Y-38950D03*
G54D20*
X59750Y-50250D03*
G54D12*
X59750Y-47250D03*
G54D20*
X61050Y-40450D03*
G54D14*
X61050Y-39450D03*
X61050Y-38450D03*
X61050Y-37450D03*
G54D20*
X39500Y-52300D03*
G54D14*
X39500Y-53300D03*
X39500Y-54300D03*
X39500Y-55300D03*
G54D21*
X62150Y-66750D03*
X62150Y-70750D03*
G54D22*
X62050Y-65650D03*
X62050Y-64650D03*
G54D23*
X57550Y-62950D03*
G54D24*
X57550Y-61950D03*
G54D25*
X58450Y-68709D03*
X58450Y-71071D03*
X60300Y-69890D03*
G54D26*
X57750Y-66350D03*
G54D27*
X58750Y-66350D03*
G54D26*
X59750Y-66350D03*
G54D12*
X85200Y-54050D03*
X86200Y-54050D03*
X85200Y-55050D03*
X86200Y-55050D03*
X85200Y-56050D03*
X86200Y-56050D03*
X85200Y-57050D03*
X86200Y-57050D03*
X85200Y-58050D03*
X86200Y-58050D03*
X86500Y-63450D03*
X85500Y-62450D03*
X86500Y-61450D03*
X67900Y-49250D03*
X67900Y-45250D03*
X72150Y-39150D03*
X76150Y-39150D03*
X72150Y-37750D03*
X76150Y-37750D03*
X83400Y-45650D03*
X83400Y-41650D03*
G54D13*
X81250Y-45850D03*
G54D14*
X81250Y-44850D03*
X81250Y-43850D03*
X81250Y-42850D03*
X78250Y-42850D03*
X78250Y-43850D03*
X78250Y-44850D03*
X78250Y-45850D03*
X73050Y-42250D03*
X73050Y-43250D03*
X73050Y-44250D03*
X73050Y-45250D03*
X73050Y-46250D03*
X73050Y-47250D03*
X73050Y-48250D03*
X73050Y-49250D03*
X73050Y-50250D03*
X73050Y-51250D03*
X73050Y-52250D03*
X73050Y-53250D03*
X73050Y-54250D03*
G54D13*
X73050Y-41250D03*
G54D14*
X76050Y-54250D03*
X76050Y-53250D03*
X76050Y-52250D03*
X76050Y-51250D03*
X76050Y-50250D03*
X76050Y-49250D03*
X76050Y-48250D03*
X76050Y-47250D03*
X76050Y-46250D03*
X76050Y-45250D03*
X76050Y-44250D03*
X76050Y-43250D03*
X76050Y-42250D03*
X76050Y-41250D03*
G54D12*
X79350Y-47650D03*
X80350Y-47650D03*
X69950Y-47250D03*
X69950Y-48250D03*
X71150Y-47250D03*
X71150Y-48250D03*
G54D15*
X74550Y-59076D03*
X74550Y-66950D03*
G54D16*
X67950Y-66350D03*
X67950Y-65350D03*
X67950Y-64350D03*
X67950Y-63350D03*
X67950Y-62350D03*
X67950Y-61350D03*
X67950Y-60350D03*
X67950Y-59350D03*
X67950Y-58350D03*
X67950Y-57350D03*
X67950Y-56350D03*
X67950Y-55350D03*
X67950Y-54350D03*
X67950Y-53350D03*
X67950Y-52350D03*
X67950Y-51350D03*
G54D12*
X78550Y-70450D03*
X80550Y-70450D03*
X78550Y-73450D03*
X80550Y-73450D03*
X78550Y-34050D03*
X80550Y-34050D03*
X78550Y-37050D03*
X80550Y-37050D03*
X69750Y-73450D03*
X67750Y-73450D03*
X69750Y-70450D03*
X67750Y-70450D03*
X67750Y-34050D03*
X69750Y-34050D03*
X67750Y-37050D03*
X69750Y-37050D03*
X86800Y-45050D03*
X84800Y-45050D03*
X86800Y-42050D03*
X84800Y-42050D03*
G54D17*
X73550Y-71950D03*
G54D18*
X75550Y-71950D03*
G54D19*
X87418Y-72508D03*
X65765Y-72508D03*
X65765Y-34712D03*
X87418Y-34712D03*
X67950Y-38950D03*
X67950Y-68550D03*
X80150Y-68550D03*
X80150Y-38950D03*
G54D20*
X85500Y-50250D03*
G54D12*
X85500Y-47250D03*
G54D20*
X86800Y-40450D03*
G54D14*
X86800Y-39450D03*
X86800Y-38450D03*
X86800Y-37450D03*
G54D20*
X65250Y-52300D03*
G54D14*
X65250Y-53300D03*
X65250Y-54300D03*
X65250Y-55300D03*
G54D21*
X87900Y-66750D03*
X87900Y-70750D03*
G54D22*
X87800Y-65650D03*
X87800Y-64650D03*
G54D23*
X83300Y-62950D03*
G54D24*
X83300Y-61950D03*
G54D25*
X84200Y-68709D03*
X84200Y-71071D03*
X86050Y-69890D03*
G54D26*
X83500Y-66350D03*
G54D27*
X84500Y-66350D03*
G54D26*
X85500Y-66350D03*
M02*
